<?xml version="1.0" encoding="UTF-8" standalone="no"?>
<svg
   xmlns:dc="http://purl.org/dc/elements/1.1/"
   xmlns:cc="http://creativecommons.org/ns#"
   xmlns:rdf="http://www.w3.org/1999/02/22-rdf-syntax-ns#"
   xmlns:svg="http://www.w3.org/2000/svg"
   xmlns="http://www.w3.org/2000/svg"
   xmlns:sodipodi="http://sodipodi.sourceforge.net/DTD/sodipodi-0.dtd"
   xmlns:inkscape="http://www.inkscape.org/namespaces/inkscape"
   version="1.1"
   id="svg62"
   width="536"
   height="536"
   viewBox="0 0 536.00001 536.00001"
   sodipodi:docname="kubuntu.svg"
   inkscape:version="1.0.2 (e86c870879, 2021-01-15)"
   inkscape:export-filename="/home/muqtadir/ubuntu-bgrt-themes/plymouth-theme/src/PNG/bgrt-fallback-logo/kubuntu.png"
   inkscape:export-xdpi="96"
   inkscape:export-ydpi="96">
  <metadata
     id="metadata68">
    <rdf:RDF>
      <cc:Work
         rdf:about="">
        <dc:format>image/svg+xml</dc:format>
        <dc:type
           rdf:resource="http://purl.org/dc/dcmitype/StillImage" />
        <dc:title />
      </cc:Work>
    </rdf:RDF>
  </metadata>
  <defs
     id="defs66" />
  <sodipodi:namedview
     pagecolor="#1d1d1d"
     bordercolor="#666666"
     borderopacity="1"
     objecttolerance="10"
     gridtolerance="10"
     guidetolerance="10"
     inkscape:pageopacity="0"
     inkscape:pageshadow="2"
     inkscape:window-width="1366"
     inkscape:window-height="704"
     id="namedview64"
     showgrid="true"
     inkscape:zoom="0.6449685"
     inkscape:cx="15.470014"
     inkscape:cy="215.11771"
     inkscape:window-x="0"
     inkscape:window-y="27"
     inkscape:window-maximized="1"
     inkscape:current-layer="g70"
     inkscape:document-rotation="0">
    <inkscape:grid
       type="xygrid"
       id="grid74" />
  </sodipodi:namedview>
  <g
     inkscape:groupmode="layer"
     inkscape:label="Image"
     id="g70">
    <g
       id="g3647"
       transform="matrix(5.5157916,0,0,5.5157916,-4299.2425,18)">
      <path
         style="fill:#0079c1;stroke-width:1.0157"
         d="m 873.35469,45.322609 c 0,25.030779 -20.29287,45.325493 -45.32528,45.325493 -25.0314,0 -45.32354,-20.294714 -45.32354,-45.325493 C 782.70587,20.29152 802.99801,0 828.02941,0 c 25.03241,0 45.32528,20.29152 45.32528,45.322609 z"
         id="path2819-8-3-8" />
      <g
         id="g4835-5-6-3"
         transform="matrix(0.415288,0,0,0.415288,609.13611,80.906538)"
         style="fill:#ffffff;fill-opacity:1">
        <path
           id="path79-9-8-1"
           style="fill:#ffffff;fill-opacity:1;stroke-width:1.0157"
           d="m 491.33718,-46.69824 3.70914,-80.4685 -24.6647,-22.46731 c -0.58621,-0.38286 -1.35789,-0.30352 -1.85038,0.19243 l -11.39485,11.39287 c -0.47908,0.48057 -0.56935,1.22697 -0.21623,1.80871 l 13.34045,21.9709 c -2.36616,3.97798 -4.26116,8.26742 -5.61659,12.79193 l -24.49229,5.094363 c -0.68143,0.141344 -1.17242,0.744912 -1.17242,1.444199 v 16.111785 c 0,0.681432 0.4652,1.271602 1.12183,1.430305 l 23.77168,5.810499 c 1.26764,5.240164 3.23258,10.208548 5.82885,14.774229 l -13.75903,20.982474 c -0.38386,0.58621 -0.30352,1.358891 0.19243,1.852855 l 11.39138,11.392872 c 0.47908,0.478088 1.22697,0.570334 1.81119,0.219207 z"
           sodipodi:nodetypes="ccccccccccccccccccc" />
      </g>
      <g
         id="g4835-5-6-3-7"
         transform="matrix(-0.21579109,0.35482154,-0.35482154,-0.21579109,919.22927,-144.75119)"
         style="fill:#ffffff;fill-opacity:1">
        <path
           id="path79-9-8-1-7"
           style="fill:#ffffff;fill-opacity:1;stroke-width:1.0157"
           d="m 471.18342,-9.6246412 0.29688,-80.8517898 -22.87532,-23.976679 c -0.58621,-0.38287 -1.3579,-0.30352 -1.85038,0.19242 l -11.39485,11.39287 c -0.47909,0.48057 -0.56935,1.22698 -0.21623,1.80872 l 13.34045,21.970892 c -2.36616,3.977978 -4.26117,8.267419 -5.6166,12.791931 l -24.49228,5.094361 c -0.68143,0.141344 -1.17242,0.744912 -1.17242,1.444199 v 16.111785 c 0,0.681431 0.4652,1.271602 1.12183,1.430305 l 23.77168,5.810498 c 1.26764,5.240165 3.23257,10.208549 5.82885,14.774229 L 434.166,-0.64842569 c -0.38386,0.5862096 -0.30352,1.358891 0.19242,1.85285499 L 445.7498,12.597301 c 0.47908,0.478089 1.22697,0.570334 1.81119,0.219208 z"
           sodipodi:nodetypes="ccccccccccccccccccc" />
      </g>
      <g
         id="g4835-5-6-3-1"
         transform="matrix(-0.20731956,-0.35983709,0.35983709,-0.20731956,958.85963,231.66525)"
         style="fill:#ffffff;fill-opacity:1">
        <path
           id="path79-9-8-1-5"
           style="fill:#ffffff;fill-opacity:1;stroke-width:1.0157"
           d="m 511.14913,-10.724521 1.6818,-79.30352 -23.39543,-23.191379 c -0.58621,-0.38287 -1.3579,-0.30352 -1.85038,0.19243 l -11.39485,11.39287 c -0.47909,0.48057 -0.56935,1.22697 -0.21623,1.808711 l 13.34045,21.970907 c -2.36616,3.977978 -4.26117,8.267419 -5.6166,12.79193 l -24.49228,5.094361 c -0.68143,0.141345 -1.17242,0.744913 -1.17242,1.4442 v 16.111785 c 0,0.681431 0.4652,1.271602 1.12183,1.430305 l 23.77168,5.810498 c 1.26764,5.240165 3.23257,10.208549 5.82885,14.774229 L 474.99652,0.58528012 C 474.61266,1.1714897 474.693,1.9441711 475.18894,2.4381351 l 11.39138,11.3928719 c 0.47908,0.478089 1.22697,0.570335 1.81119,0.219208 z"
           sodipodi:nodetypes="ccccccccccccccccccc" />
      </g>
      <path
         style="fill:#0079c1;fill-opacity:1"
         d="m 850.60524,44.6229 c 0,11.895612 -9.64397,21.540458 -21.54035,21.540458 -11.89591,0 -21.53953,-9.644846 -21.53953,-21.540458 0,-11.895759 9.64362,-21.539088 21.53953,-21.539088 11.89638,0 21.54035,9.643329 21.54035,21.539088 z"
         id="path2819-8-3-8-5" />
    </g>
  </g>
</svg>
