<?xml version="1.0" encoding="UTF-8" standalone="no"?>
<svg
   xmlns:dc="http://purl.org/dc/elements/1.1/"
   xmlns:cc="http://creativecommons.org/ns#"
   xmlns:rdf="http://www.w3.org/1999/02/22-rdf-syntax-ns#"
   xmlns:svg="http://www.w3.org/2000/svg"
   xmlns="http://www.w3.org/2000/svg"
   xmlns:sodipodi="http://sodipodi.sourceforge.net/DTD/sodipodi-0.dtd"
   xmlns:inkscape="http://www.inkscape.org/namespaces/inkscape"
   version="1.1"
   id="svg62"
   width="536"
   height="536"
   viewBox="0 0 536.00001 536.00001"
   sodipodi:docname="ubuntu-mate.svg"
   inkscape:version="1.0.2 (e86c870879, 2021-01-15)"
   inkscape:export-filename="/home/muqtadir/ubuntu-bgrt-themes/plymouth-theme/src/PNG/bgrt-fallback-logo/ubuntu-mate.png"
   inkscape:export-xdpi="96"
   inkscape:export-ydpi="96">
  <metadata
     id="metadata68">
    <rdf:RDF>
      <cc:Work
         rdf:about="">
        <dc:format>image/svg+xml</dc:format>
        <dc:type
           rdf:resource="http://purl.org/dc/dcmitype/StillImage" />
        <dc:title />
      </cc:Work>
    </rdf:RDF>
  </metadata>
  <defs
     id="defs66" />
  <sodipodi:namedview
     pagecolor="#1d1d1d"
     bordercolor="#666666"
     borderopacity="1"
     objecttolerance="10"
     gridtolerance="10"
     guidetolerance="10"
     inkscape:pageopacity="0"
     inkscape:pageshadow="2"
     inkscape:window-width="1366"
     inkscape:window-height="704"
     id="namedview64"
     showgrid="true"
     inkscape:zoom="0.6449685"
     inkscape:cx="313.67908"
     inkscape:cy="215.11771"
     inkscape:window-x="0"
     inkscape:window-y="27"
     inkscape:window-maximized="1"
     inkscape:current-layer="g70"
     inkscape:document-rotation="0">
    <inkscape:grid
       type="xygrid"
       id="grid74" />
  </sodipodi:namedview>
  <g
     inkscape:groupmode="layer"
     inkscape:label="Image"
     id="g70">
    <g
       id="g3769"
       transform="matrix(3.4014904,0,0,3.4014904,-9.2119232,-3044.5733)">
      <path
         style="fill:#87a556;fill-opacity:1;stroke-width:1.02079"
         inkscape:connector-curvature="0"
         d="m 154.99439,973.86038 c 0,40.58962 -32.90658,73.49622 -73.497683,73.49622 C 40.905083,1047.3566 8,1014.4505 8,973.86038 c 0,-40.59266 32.904572,-73.4982 73.496196,-73.4982 40.591104,0 73.498194,32.90554 73.498194,73.4982 z"
         id="path3171-7-3-3-8-7-0-9-6-6" />
      <path
         style="color:#000000;font-style:normal;font-variant:normal;font-weight:normal;font-stretch:normal;font-size:medium;line-height:normal;font-family:Sans;-inkscape-font-specification:Sans;text-indent:0;text-align:start;text-decoration:none;text-decoration-line:none;letter-spacing:normal;word-spacing:normal;text-transform:none;writing-mode:lr-tb;direction:ltr;baseline-shift:baseline;text-anchor:start;display:inline;overflow:visible;visibility:visible;fill:#ffffff;fill-opacity:1;stroke:none;stroke-width:1.19507;marker:none;enable-background:accumulate"
         d="m 81.497197,928.91252 c -18.50797,0 -34.434064,11.27663 -41.310274,27.30625 l 5.295371,3.12619 c 5.727401,-14.23861 19.689186,-24.24387 36.014903,-24.24387 2.100036,0 4.152559,0.18622 6.156666,0.5104 v -6.25237 c -2.015231,-0.27971 -4.062749,-0.4466 -6.156666,-0.4466 z m 18.406199,3.95558 -0.0319,6.85846 c 1.020584,0.5482 2.003834,1.15215 2.966684,1.78639 l 5.80577,-3.41328 c -2.69775,-2.05359 -5.61658,-3.82251 -8.740554,-5.23157 z m -18.406199,11.32444 c -12.89179,0 -23.917465,8.32529 -27.976147,19.87359 l 5.48677,3.25378 c 2.81662,-9.78248 11.767885,-16.9069 22.489377,-16.9069 2.119909,0 4.172003,0.27543 6.124766,0.79749 v -6.34806 c -1.978729,-0.42032 -4.02812,-0.6699 -6.124766,-0.6699 z m 36.046803,2.83908 -5.32727,3.15809 c 5.03749,6.53902 8.03875,14.7487 8.03875,23.66967 0,9.09172 -3.11313,17.42173 -8.32585,24.02056 l 5.32727,3.15806 c 5.75101,-7.55379 9.18715,-16.98337 9.18715,-27.17862 0,-10.03881 -3.30958,-19.33279 -8.90005,-26.82776 z m -13.30223,7.87926 -5.391068,3.15808 c 3.785148,4.16233 6.092868,9.68903 6.092868,15.79042 0,6.27972 -2.45635,11.92181 -6.443767,16.10941 l 5.454867,3.22188 c 4.48211,-5.2022 7.20936,-11.97239 7.20936,-19.33129 0,-7.19633 -2.61519,-13.79687 -6.92226,-18.9485 z m -67.340529,13.55743 c -0.2217,1.7658 -0.350898,3.56347 -0.350898,5.39107 0,1.82028 0.138108,3.59883 0.350898,5.35917 l 5.901468,-3.47708 c -0.03004,-0.62298 -0.0638,-1.25062 -0.0638,-1.88209 0,-0.63147 0.03376,-1.25912 0.0638,-1.88209 z m 22.106579,11.93053 -5.48677,3.22188 c 4.050103,11.56238 15.07441,19.90548 27.976147,19.90548 2.096646,0 4.146037,-0.2496 6.124766,-0.6699 v -6.37995 c -1.953284,0.51296 -4.004456,0.7975 -6.124766,0.7975 -10.721492,0 -19.672757,-7.10025 -22.489377,-16.87501 z m -13.525526,7.97496 -5.295371,3.12618 c 6.87621,16.02962 22.802304,27.30622 41.310274,27.30622 2.068847,0 4.10176,-0.1696 6.092866,-0.4466 v -6.2204 c -1.986609,0.3135 -4.013199,0.4785 -6.092866,0.4785 -16.325717,0 -30.287502,-10.0053 -36.014903,-24.2439 z m 56.941186,18.1191 c -0.82304,0.5283 -1.6877,1.0331 -2.551984,1.4993 l -0.0319,6.8585 c 2.978434,-1.3429 5.796144,-2.9812 8.389654,-4.9126 z"
         id="path9"
         inkscape:connector-curvature="0" />
      <path
         style="display:inline;fill:#ffffff;fill-opacity:1;fill-rule:evenodd;stroke:none;stroke-width:1.02079;enable-background:new"
         d="m 93.778629,920.23577 -0.0319,33.75002 28.582241,-16.87501 z m -64.310047,36.7486 -0.0319,33.75001 28.582244,-16.875 z m 64.278148,37.29089 -0.0319,33.71814 28.58224,-16.875 z"
         id="path5227"
         inkscape:connector-curvature="0" />
    </g>
  </g>
</svg>
