<?xml version="1.0" encoding="UTF-8" standalone="no"?>
<svg
   xmlns:dc="http://purl.org/dc/elements/1.1/"
   xmlns:cc="http://creativecommons.org/ns#"
   xmlns:rdf="http://www.w3.org/1999/02/22-rdf-syntax-ns#"
   xmlns:svg="http://www.w3.org/2000/svg"
   xmlns="http://www.w3.org/2000/svg"
   xmlns:xlink="http://www.w3.org/1999/xlink"
   xmlns:sodipodi="http://sodipodi.sourceforge.net/DTD/sodipodi-0.dtd"
   xmlns:inkscape="http://www.inkscape.org/namespaces/inkscape"
   version="1.1"
   id="svg62"
   width="536"
   height="536"
   viewBox="0 0 536.00001 536.00001"
   sodipodi:docname="ubuntu-budgie.svg"
   inkscape:version="1.0.2 (e86c870879, 2021-01-15)"
   inkscape:export-filename="/home/muqtadir/ubuntu-bgrt-themes/plymouth-theme/src/PNG/bgrt-fallback-logo/ubuntu-budgie.png"
   inkscape:export-xdpi="96"
   inkscape:export-ydpi="96">
  <metadata
     id="metadata68">
    <rdf:RDF>
      <cc:Work
         rdf:about="">
        <dc:format>image/svg+xml</dc:format>
        <dc:type
           rdf:resource="http://purl.org/dc/dcmitype/StillImage" />
        <dc:title />
      </cc:Work>
    </rdf:RDF>
  </metadata>
  <defs
     id="defs66" />
  <sodipodi:namedview
     pagecolor="#1d1d1d"
     bordercolor="#666666"
     borderopacity="1"
     objecttolerance="10"
     gridtolerance="10"
     guidetolerance="10"
     inkscape:pageopacity="0"
     inkscape:pageshadow="2"
     inkscape:window-width="1366"
     inkscape:window-height="704"
     id="namedview64"
     showgrid="true"
     inkscape:zoom="0.6449685"
     inkscape:cx="233.68888"
     inkscape:cy="215.11771"
     inkscape:window-x="0"
     inkscape:window-y="27"
     inkscape:window-maximized="1"
     inkscape:current-layer="g70"
     inkscape:document-rotation="0">
    <inkscape:grid
       type="xygrid"
       id="grid74" />
  </sodipodi:namedview>
  <g
     inkscape:groupmode="layer"
     inkscape:label="Image"
     id="g70">
    <circle
       cy="268"
       cx="268"
       fill="#404552"
       id="circle6"
       r="250"
       style="stroke-width:1.95312" />
    <path
       id="budgie"
       fill="#ffffff"
       d="m 350.61719,301.00781 c -31.7168,0 -58.37891,22.53125 -66.84375,52.39063 -1.78664,6.30293 -3.01582,8.4623 -5.41973,12.64609 -3.09961,5.39492 -9.3918,13.18594 -18.06582,18.06582 -7.05703,3.97012 -13.13867,7.34805 -22.22656,5.9791 -2.36563,-0.35636 -6.55703,-1.01521 -10.75098,-3.42812 -6.68437,-3.84805 -8.88828,-7.22637 -14.00097,-17 0.72988,10.43086 -0.61512,14.23633 4.5164,32.51758 10.21465,36.39257 49.4668,65.03711 95.74805,65.03711 34.30859,0 66.10742,-14.29922 83.99804,-36.12891 6.54375,-7.9834 11.47149,-14.28242 16.25918,-25.29297 4.35606,-10.01719 5.42383,-22.85937 5.42696,-34.32812 0.0117,-38.94336 -30.73633,-70.45704 -68.65039,-70.45704 z"
       style="stroke-width:1.95312" />
    <use
       xlink:href="#budgie"
       transform="matrix(-0.5,0.86603,-0.86603,-0.5,634.09245,169.9056)"
       height="100%"
       width="100%"
       y="0"
       x="0"
       id="use9" />
    <use
       xlink:href="#budgie"
       transform="matrix(-0.5,-0.86603,0.86603,-0.5,169.9056,634.09245)"
       height="100%"
       width="100%"
       y="0"
       x="0"
       id="use11" />
  </g>
</svg>
