<?xml version="1.0" encoding="UTF-8" standalone="no"?>
<svg
   xmlns:dc="http://purl.org/dc/elements/1.1/"
   xmlns:cc="http://creativecommons.org/ns#"
   xmlns:rdf="http://www.w3.org/1999/02/22-rdf-syntax-ns#"
   xmlns:svg="http://www.w3.org/2000/svg"
   xmlns="http://www.w3.org/2000/svg"
   xmlns:sodipodi="http://sodipodi.sourceforge.net/DTD/sodipodi-0.dtd"
   xmlns:inkscape="http://www.inkscape.org/namespaces/inkscape"
   version="1.1"
   id="svg62"
   width="536"
   height="536"
   viewBox="0 0 536.00001 536.00001"
   sodipodi:docname="xubuntu.svg"
   inkscape:version="1.0.2 (e86c870879, 2021-01-15)"
   inkscape:export-filename="/home/muqtadir/ubuntu-bgrt-themes/plymouth-theme/src/PNG/bgrt-fallback-logo/xubuntu.png"
   inkscape:export-xdpi="96"
   inkscape:export-ydpi="96">
  <metadata
     id="metadata68">
    <rdf:RDF>
      <cc:Work
         rdf:about="">
        <dc:format>image/svg+xml</dc:format>
        <dc:type
           rdf:resource="http://purl.org/dc/dcmitype/StillImage" />
        <dc:title />
      </cc:Work>
    </rdf:RDF>
  </metadata>
  <defs
     id="defs66" />
  <sodipodi:namedview
     pagecolor="#1d1d1d"
     bordercolor="#666666"
     borderopacity="1"
     objecttolerance="10"
     gridtolerance="10"
     guidetolerance="10"
     inkscape:pageopacity="0"
     inkscape:pageshadow="2"
     inkscape:window-width="1366"
     inkscape:window-height="704"
     id="namedview64"
     showgrid="true"
     inkscape:zoom="0.6449685"
     inkscape:cx="455.41609"
     inkscape:cy="215.11771"
     inkscape:window-x="0"
     inkscape:window-y="27"
     inkscape:window-maximized="1"
     inkscape:current-layer="g70"
     inkscape:document-rotation="0">
    <inkscape:grid
       type="xygrid"
       id="grid74" />
  </sodipodi:namedview>
  <g
     inkscape:groupmode="layer"
     inkscape:label="Image"
     id="g70">
    <g
       transform="matrix(12.075536,0,0,12.075536,-6023.097,-5947.6964)"
       id="g1980"
       style="stroke-width:0.974585">
      <circle
         style="fill:#0044aa;fill-opacity:1;stroke:none;stroke-width:0.630527"
         id="path12878"
         inkscape:export-filename="/ssh/nebula/public_html/temp/xubuntu/precise_logo/logo_bigsizes.png"
         inkscape:export-xdpi="92.220436"
         inkscape:export-ydpi="92.220436"
         cx="520.9787"
         cy="514.73462"
         r="20.703014" />
      <path
         sodipodi:nodetypes="ssssssssscsssssssscscs"
         id="path12949"
         d="m 514.96267,505.49757 c -0.29923,1.48505 0.13076,3.18493 0.73187,5.24045 0.0363,0.12402 -0.034,0.28271 -0.0975,0.3012 -0.27292,0.0795 -0.74088,-0.005 -0.83145,-0.19107 -0.46839,-0.96176 -0.69112,-1.94528 -1.23829,-2.89208 -0.37847,-0.65491 -0.76997,-1.2798 -1.23632,-1.70234 -0.56645,-0.51325 -1.01032,-0.61411 -1.61641,-0.36089 -0.76458,0.31944 -1.22648,1.08531 -1.38491,1.77209 -0.16079,0.69695 -0.0935,1.50151 0.0322,2.1997 0.14806,0.82175 0.33641,1.47023 0.57851,2.23919 -0.18471,0.54613 -1.29638,3.54352 -1.56515,5.62148 -0.34502,2.66755 -1.31533,10.73881 7.57821,9.84144 3.28029,-0.33098 5.9533,-1.4806 8.48281,-2.66008 1.15916,-0.5405 2.61331,-1.2378 4.01121,-2.00561 1.39858,-0.76816 2.69604,-1.58693 3.68772,-2.45848 0.99329,-0.87296 1.71682,-1.82923 1.58508,-2.78196 -0.2123,-1.53539 -1.23055,-2.6768 -2.58788,-3.55834 -1.36238,-0.88481 -3.68866,-1.70701 -5.36995,-2.19824 -2.20605,-0.64454 -3.91389,-0.89507 -5.98436,-1.00772 -0.11593,-2.09767 0.16367,-4.85807 -1.16457,-6.46616 -0.30762,-0.37244 -0.75607,-0.60922 -1.29393,-0.64697 -0.8644,0.0349 -2.03917,0.33585 -2.31692,1.71439 z"
         style="opacity:1;fill:#ffffff;fill-opacity:1;stroke:none;stroke-width:0.630527"
         inkscape:connector-curvature="0" />
      <path
         sodipodi:nodetypes="scsssss"
         id="path12953"
         d="m 525.40792,509.2482 c -0.0223,0.5167 0.0858,1.63085 0.76285,1.71668 0.80715,0.0954 1.06623,-0.56918 1.15421,-1.08857 0.28002,-1.65306 0.35782,-2.14718 0.49773,-3.64501 0.1649,-1.76531 0.59849,-4.74318 -0.15939,-4.46549 -0.76783,0.28132 -1.37771,2.6599 -1.57749,3.65673 -0.15563,0.77656 -0.63955,2.93843 -0.67791,3.82566 z"
         style="opacity:1;fill:#ffffff;fill-opacity:1;stroke:none;stroke-width:0.630527"
         inkscape:connector-curvature="0" />
      <path
         inkscape:connector-curvature="0"
         style="opacity:1;fill:#ffffff;fill-opacity:1;stroke:none;stroke-width:0.630527"
         d="m 528.94351,509.62287 c -0.44215,1.03198 -0.65128,1.92343 -0.0403,2.22626 0.72823,0.36092 1.35764,-0.3379 1.56245,-0.82325 0.61762,-1.46364 0.95952,-2.34978 1.43603,-3.45677 0.70101,-1.62854 2.45067,-4.75688 1.29593,-4.59097 -0.80943,0.1163 -1.8982,2.17237 -2.42048,3.04461 -0.6734,1.12028 -1.19689,2.1138 -1.83368,3.60012 z"
         id="path12955"
         sodipodi:nodetypes="ssssscs" />
    </g>
  </g>
</svg>
