<?xml version="1.0" encoding="UTF-8" standalone="no"?>
<svg
   xmlns:dc="http://purl.org/dc/elements/1.1/"
   xmlns:cc="http://creativecommons.org/ns#"
   xmlns:rdf="http://www.w3.org/1999/02/22-rdf-syntax-ns#"
   xmlns:svg="http://www.w3.org/2000/svg"
   xmlns="http://www.w3.org/2000/svg"
   xmlns:sodipodi="http://sodipodi.sourceforge.net/DTD/sodipodi-0.dtd"
   xmlns:inkscape="http://www.inkscape.org/namespaces/inkscape"
   width="48"
   height="48"
   viewBox="0 0 48 48"
   version="1.1"
   id="svg6"
   sodipodi:docname="keyboard_48px.svg"
   inkscape:version="1.0.2 (e86c870879, 2021-01-15)"
   inkscape:export-filename="/home/muqtadir/ubuntu-bgrt-themes/SVG/keyboard_48px.png"
   inkscape:export-xdpi="72"
   inkscape:export-ydpi="72">
  <metadata
     id="metadata12">
    <rdf:RDF>
      <cc:Work
         rdf:about="">
        <dc:format>image/svg+xml</dc:format>
        <dc:type
           rdf:resource="http://purl.org/dc/dcmitype/StillImage" />
        <dc:title></dc:title>
      </cc:Work>
    </rdf:RDF>
  </metadata>
  <defs
     id="defs10" />
  <sodipodi:namedview
     pagecolor="#ffffff"
     bordercolor="#666666"
     borderopacity="1"
     objecttolerance="10"
     gridtolerance="10"
     guidetolerance="10"
     inkscape:pageopacity="0"
     inkscape:pageshadow="2"
     inkscape:window-width="1366"
     inkscape:window-height="704"
     id="namedview8"
     showgrid="true"
     inkscape:zoom="5.7291667"
     inkscape:cx="4.669091"
     inkscape:cy="24"
     inkscape:window-x="0"
     inkscape:window-y="27"
     inkscape:window-maximized="1"
     inkscape:current-layer="svg6"
     inkscape:document-rotation="0">
    <inkscape:grid
       type="xygrid"
       id="grid14" />
  </sodipodi:namedview>
  <path
     d="M0 0h48v48H0zm0 0h48v48H0z"
     fill="none"
     id="path4" />
  <g
     fill="#808080"
     font-family="sans-serif"
     font-weight="400"
     white-space="normal"
     id="g6"
     transform="matrix(2.5454545,0,0,2.5454545,4,2.3636365)"
     style="fill:#c0c0c0;fill-opacity:1">
    <path
       d="M 4.1841904,3 C 2.8662857,3.015 1.9014285,2.97 1.113619,3.385 A 1.9695238,1.88 0 0 0 0.23571428,4.383 C 0.06285714,4.822 0,5.343 0,6 v 5 c 0,0.658 0.06285714,1.179 0.23571428,1.617 0.17180952,0.439 0.48295237,0.79 0.87790472,0.998 0.7878095,0.416 1.7526667,0.37 3.0705714,0.385 h 7.3459046 c 1.317905,-0.014 2.282762,0.03 3.071619,-0.385 a 1.9695238,1.88 0 0 0 0.877905,-0.998 C 15.651428,12.179 15.714285,11.657 15.714285,11 V 6 c 0,-0.658 -0.06286,-1.178 -0.235714,-1.617 A 1.9695238,1.88 0 0 0 14.601714,3.385 C 13.812857,2.969 12.848,3.015 11.530095,3 H 4.1883809 Z m 0.00629,1 h 7.3333326 c 1.318953,0.015 2.186381,0.06 2.56981,0.262 0.192762,0.101 0.303809,0.213 0.405428,0.472 C 14.60067,4.994 14.66667,5.408 14.66667,6 v 5 c 0,0.592 -0.066,1.006 -0.167619,1.266 -0.102666,0.26 -0.212666,0.371 -0.405428,0.472 C 13.71019,12.94 12.842762,12.985 11.523809,13 H 4.1904761 C 2.8725714,12.985 2.0040952,12.94 1.6206666,12.738 1.4289524,12.638 1.3168571,12.526 1.2152381,12.266 1.113619,12.006 1.047619,11.592 1.047619,11 V 6 c 0,-0.592 0.066,-1.006 0.1676191,-1.266 C 1.3179047,4.474 1.4289524,4.363 1.6206666,4.262 2.0040952,4.06 2.8725714,4.015 4.1904761,4 Z"
       overflow="visible"
       style="font-variant-ligatures:normal;font-variant-position:normal;font-variant-caps:normal;font-variant-numeric:normal;font-variant-alternates:normal;font-feature-settings:normal;text-indent:0;text-decoration:none;text-decoration-line:none;text-decoration-style:solid;text-decoration-color:#000000;text-transform:none;text-orientation:mixed;shape-padding:0;isolation:auto;mix-blend-mode:normal;stroke-width:1.02353;fill:#c0c0c0;fill-opacity:1"
       id="path2-3" />
    <path
       d="M 3.1428571,6.1428571 V 7.1897779 H 4.1897779 V 6.1428571 Z m 2.0938416,0 V 7.1897779 H 6.2836195 V 6.1428571 Z m 2.0938416,0 V 7.1897779 H 8.3774611 V 6.1428571 Z m 2.0938416,0 V 7.1897779 H 10.471303 V 6.1428571 Z m 2.0938411,0 v 1.0469208 h 1.046921 V 6.1428571 Z m -7.3305389,2.0938416 0.00419,1.0469208 H 5.2366987 V 8.2366987 Z m 2.0959354,0 V 9.2836195 H 7.3305403 V 8.2366987 Z m 2.0938416,0 V 9.2836195 H 9.4243819 V 8.2366987 Z m 2.0938419,0 v 1.0469208 h 1.04692 V 8.2366987 Z M 3.1428571,10.33054 v 1.046921 H 4.1897779 V 10.33054 Z m 2.0938416,0 v 1.046921 H 10.471303 V 10.33054 Z m 6.2815243,0 0.01257,1.046921 h 1.040639 l -0.01257,-1.046921 z"
       fill-rule="evenodd"
       overflow="visible"
       style="font-variant-ligatures:normal;font-variant-position:normal;font-variant-caps:normal;font-variant-numeric:normal;font-variant-alternates:normal;font-feature-settings:normal;text-indent:0;text-decoration:none;text-decoration-line:none;text-decoration-style:solid;text-decoration-color:#000000;text-transform:none;text-orientation:mixed;shape-padding:0;isolation:auto;mix-blend-mode:normal;stroke-width:1.04692;fill:#c0c0c0;fill-opacity:1"
       id="path4-6" />
  </g>
</svg>
