<?xml version="1.0" encoding="UTF-8" standalone="no"?>
<svg
   xmlns:dc="http://purl.org/dc/elements/1.1/"
   xmlns:cc="http://creativecommons.org/ns#"
   xmlns:rdf="http://www.w3.org/1999/02/22-rdf-syntax-ns#"
   xmlns:svg="http://www.w3.org/2000/svg"
   xmlns="http://www.w3.org/2000/svg"
   xmlns:sodipodi="http://sodipodi.sourceforge.net/DTD/sodipodi-0.dtd"
   xmlns:inkscape="http://www.inkscape.org/namespaces/inkscape"
   version="1.1"
   id="svg2"
   width="283"
   height="49"
   viewBox="0 0 283 49"
   sodipodi:docname="kubuntu-logo.svg"
   inkscape:version="1.0.2 (e86c870879, 2021-01-15)"
   inkscape:export-filename="/home/muqtadir/ubuntu-bgrt-themes/plymouth-theme/src/kubuntu.png"
   inkscape:export-xdpi="96"
   inkscape:export-ydpi="96">
  <metadata
     id="metadata8">
    <rdf:RDF>
      <cc:Work
         rdf:about="">
        <dc:format>image/svg+xml</dc:format>
        <dc:type
           rdf:resource="http://purl.org/dc/dcmitype/StillImage" />
        <dc:title />
      </cc:Work>
    </rdf:RDF>
  </metadata>
  <defs
     id="defs6" />
  <sodipodi:namedview
     pagecolor="#1d1d1d"
     bordercolor="#666666"
     borderopacity="1"
     objecttolerance="10"
     gridtolerance="10"
     guidetolerance="10"
     inkscape:pageopacity="0"
     inkscape:pageshadow="2"
     inkscape:window-width="1366"
     inkscape:window-height="704"
     id="namedview4"
     showgrid="true"
     inkscape:zoom="1.3845531"
     inkscape:cx="83.825408"
     inkscape:cy="14.237381"
     inkscape:window-x="0"
     inkscape:window-y="0"
     inkscape:window-maximized="1"
     inkscape:current-layer="g10"
     inkscape:document-rotation="0">
    <inkscape:grid
       type="xygrid"
       id="grid888" />
  </sodipodi:namedview>
  <g
     inkscape:groupmode="layer"
     inkscape:label="Image"
     id="g10">
    <g
       id="g3657"
       transform="matrix(0.28810311,0,0,0.28810311,31.000004,0)">
      <g
         transform="translate(-1.5885229e-5)"
         id="g7">
        <path
           id="path9"
           d="m 40.794,105.76 c 4.316,3.312 8.883,7.413 13.705,12.303 4.819,4.895 9.567,10.183 14.245,15.864 4.674,5.687 9.099,11.439 13.274,17.267 4.171,5.827 7.695,11.26 10.576,16.295 h -24.39 c -3.021,-5.035 -6.512,-10.145 -10.468,-15.322 -3.959,-5.181 -8.06,-10.146 -12.303,-14.895 -4.245,-4.748 -8.562,-9.135 -12.95,-13.166 -4.391,-4.027 -8.525,-7.409 -12.41,-10.145 v 53.527 H 0 V 3.453 L 20.073,0 v 102.307 c 3.453,-3.453 7.265,-7.265 11.439,-11.439 4.172,-4.172 8.272,-8.417 12.303,-12.734 4.026,-4.315 7.841,-8.451 11.438,-12.409 3.596,-3.957 6.691,-7.447 9.281,-10.469 h 23.742 c -3.312,3.598 -6.906,7.553 -10.792,11.87 -3.885,4.317 -7.915,8.671 -12.087,13.059 -4.175,4.39 -8.384,8.778 -12.626,13.166 -4.245,4.389 -8.238,8.524 -11.977,12.409 z"
           style="fill:#ffffff;fill-opacity:1" />
        <path
           id="path11"
           d="m 196.408,164.252 c -4.606,1.152 -10.685,2.374 -18.238,3.668 -7.555,1.296 -16.296,1.943 -26.225,1.943 -8.633,0 -15.9,-1.261 -21.8,-3.776 -5.901,-2.516 -10.649,-6.078 -14.245,-10.685 -3.598,-4.604 -6.188,-10.036 -7.77,-16.295 -1.585,-6.261 -2.374,-13.2 -2.374,-20.829 V 55.255 h 20.072 v 58.706 c 0,13.672 2.158,23.456 6.476,29.354 4.316,5.902 11.581,8.852 21.8,8.852 2.158,0 4.387,-0.073 6.69,-0.218 2.3,-0.142 4.458,-0.324 6.476,-0.539 2.013,-0.216 3.848,-0.432 5.504,-0.647 1.652,-0.216 2.839,-0.465 3.561,-0.755 V 55.255 h 20.073 z"
           style="fill:#ffffff;fill-opacity:1" />
        <path
           id="path13"
           d="m 245.4,60.218 c 2.444,-1.58 6.151,-3.237 11.115,-4.963 4.964,-1.728 10.684,-2.59 17.159,-2.59 8.057,0 15.216,1.439 21.476,4.315 6.259,2.88 11.547,6.907 15.863,12.088 4.317,5.18 7.589,11.368 9.821,18.562 2.229,7.195 3.346,15.107 3.346,23.74 0,9.066 -1.333,17.234 -3.993,24.499 -2.664,7.267 -6.441,13.417 -11.332,18.452 -4.894,5.039 -10.791,8.924 -17.698,11.656 -6.906,2.731 -14.677,4.101 -23.311,4.101 -9.354,0 -17.627,-0.647 -24.821,-1.943 -7.196,-1.294 -13.095,-2.588 -17.698,-3.884 V 3.453 L 245.4,0 Z m 0,89.789 c 2.013,0.576 4.855,1.115 8.525,1.617 3.669,0.506 8.235,0.757 13.705,0.757 10.792,0 19.426,-3.562 25.9,-10.684 6.476,-7.123 9.713,-17.23 9.713,-30.326 0,-5.753 -0.577,-11.148 -1.727,-16.188 -1.153,-5.035 -3.021,-9.389 -5.612,-13.057 -2.59,-3.671 -5.936,-6.547 -10.036,-8.635 -4.101,-2.085 -9.031,-3.13 -14.784,-3.13 -5.471,0 -10.506,0.938 -15.108,2.806 -4.607,1.873 -8.132,3.815 -10.576,5.827 z"
           style="fill:#ffffff;fill-opacity:1" />
        <path
           id="path15"
           d="m 436.195,164.252 c -4.605,1.152 -10.684,2.374 -18.236,3.668 -7.555,1.296 -16.296,1.943 -26.225,1.943 -8.633,0 -15.901,-1.261 -21.799,-3.776 -5.902,-2.516 -10.651,-6.078 -14.245,-10.685 -3.6,-4.604 -6.189,-10.036 -7.771,-16.295 -1.586,-6.261 -2.374,-13.2 -2.374,-20.829 V 55.255 h 20.072 v 58.706 c 0,13.672 2.158,23.456 6.476,29.354 4.315,5.902 11.58,8.852 21.8,8.852 2.158,0 4.386,-0.073 6.689,-0.218 2.3,-0.142 4.459,-0.324 6.477,-0.539 2.012,-0.216 3.847,-0.432 5.504,-0.647 1.65,-0.216 2.839,-0.465 3.561,-0.755 V 55.255 h 20.071 z"
           style="fill:#ffffff;fill-opacity:1" />
        <path
           id="path17"
           d="m 465.115,58.492 c 4.604,-1.151 10.718,-2.374 18.347,-3.671 7.626,-1.294 16.404,-1.94 26.332,-1.94 8.921,0 16.33,1.261 22.231,3.776 5.898,2.52 10.609,6.043 14.137,10.576 3.524,4.533 6.007,9.966 7.447,16.295 1.437,6.333 2.158,13.312 2.158,20.937 v 63.023 h -20.073 v -58.707 c 0,-6.906 -0.469,-12.804 -1.403,-17.698 -0.937,-4.89 -2.48,-8.849 -4.64,-11.87 -2.159,-3.023 -5.038,-5.215 -8.633,-6.584 -3.6,-1.366 -8.061,-2.051 -13.382,-2.051 -2.159,0 -4.392,0.074 -6.691,0.216 -2.304,0.145 -4.499,0.325 -6.583,0.541 -2.088,0.216 -3.96,0.469 -5.611,0.755 -1.656,0.29 -2.844,0.506 -3.562,0.646 v 94.752 H 465.116 V 58.492 Z"
           style="fill:#ffffff;fill-opacity:1" />
        <path
           id="path19"
           d="m 602.17,55.255 h 42.52 V 72.09 h -42.52 v 51.8 c 0,5.612 0.431,10.253 1.295,13.922 0.863,3.67 2.158,6.549 3.885,8.633 1.727,2.088 3.886,3.562 6.476,4.425 2.59,0.863 5.611,1.297 9.064,1.297 6.185,0 11.079,-0.683 14.677,-2.052 3.595,-1.366 6.044,-2.337 7.339,-2.913 l 4.316,16.403 c -2.017,1.008 -5.578,2.304 -10.684,3.884 -5.109,1.583 -10.899,2.375 -17.375,2.375 -7.628,0 -13.921,-0.971 -18.886,-2.914 -4.965,-1.943 -8.957,-4.856 -11.979,-8.74 -3.021,-3.887 -5.146,-8.669 -6.367,-14.354 -1.225,-5.683 -1.835,-12.265 -1.835,-19.749 V 23.958 l 20.073,-3.453 v 34.75 z"
           style="fill:#ffffff;fill-opacity:1" />
        <path
           id="path21"
           d="m 753.899,164.252 c -4.606,1.152 -10.684,2.374 -18.237,3.668 -7.555,1.296 -16.296,1.943 -26.225,1.943 -8.633,0 -15.9,-1.261 -21.799,-3.776 -5.902,-2.516 -10.65,-6.078 -14.245,-10.685 -3.599,-4.604 -6.188,-10.036 -7.771,-16.295 -1.585,-6.261 -2.374,-13.2 -2.374,-20.829 V 55.255 h 20.073 v 58.706 c 0,13.672 2.158,23.456 6.475,29.354 4.316,5.902 11.581,8.852 21.8,8.852 2.158,0 4.387,-0.073 6.69,-0.218 2.3,-0.142 4.459,-0.324 6.476,-0.539 2.013,-0.216 3.848,-0.432 5.504,-0.647 1.651,-0.216 2.839,-0.465 3.561,-0.755 V 55.255 h 20.072 z"
           style="fill:#ffffff;fill-opacity:1" />
      </g>
      <g
         id="g3647">
        <path
           style="fill:#0079c1;stroke-width:1.0157"
           d="m 873.35469,45.322609 c 0,25.030779 -20.29287,45.325493 -45.32528,45.325493 -25.0314,0 -45.32354,-20.294714 -45.32354,-45.325493 C 782.70587,20.29152 802.99801,0 828.02941,0 c 25.03241,0 45.32528,20.29152 45.32528,45.322609 z"
           id="path2819-8-3-8" />
        <g
           id="g4835-5-6-3"
           transform="matrix(0.415288,0,0,0.415288,609.13611,80.906538)"
           style="fill:#ffffff;fill-opacity:1">
          <path
             id="path79-9-8-1"
             style="fill:#ffffff;fill-opacity:1;stroke-width:1.0157"
             d="m 491.33718,-46.69824 3.70914,-80.4685 -24.6647,-22.46731 c -0.58621,-0.38286 -1.35789,-0.30352 -1.85038,0.19243 l -11.39485,11.39287 c -0.47908,0.48057 -0.56935,1.22697 -0.21623,1.80871 l 13.34045,21.9709 c -2.36616,3.97798 -4.26116,8.26742 -5.61659,12.79193 l -24.49229,5.094363 c -0.68143,0.141344 -1.17242,0.744912 -1.17242,1.444199 v 16.111785 c 0,0.681432 0.4652,1.271602 1.12183,1.430305 l 23.77168,5.810499 c 1.26764,5.240164 3.23258,10.208548 5.82885,14.774229 l -13.75903,20.982474 c -0.38386,0.58621 -0.30352,1.358891 0.19243,1.852855 l 11.39138,11.392872 c 0.47908,0.478088 1.22697,0.570334 1.81119,0.219207 z"
             sodipodi:nodetypes="ccccccccccccccccccc" />
        </g>
        <g
           id="g4835-5-6-3-7"
           transform="matrix(-0.21579109,0.35482154,-0.35482154,-0.21579109,919.22927,-144.75119)"
           style="fill:#ffffff;fill-opacity:1">
          <path
             id="path79-9-8-1-7"
             style="fill:#ffffff;fill-opacity:1;stroke-width:1.0157"
             d="m 471.18342,-9.6246412 0.29688,-80.8517898 -22.87532,-23.976679 c -0.58621,-0.38287 -1.3579,-0.30352 -1.85038,0.19242 l -11.39485,11.39287 c -0.47909,0.48057 -0.56935,1.22698 -0.21623,1.80872 l 13.34045,21.970892 c -2.36616,3.977978 -4.26117,8.267419 -5.6166,12.791931 l -24.49228,5.094361 c -0.68143,0.141344 -1.17242,0.744912 -1.17242,1.444199 v 16.111785 c 0,0.681431 0.4652,1.271602 1.12183,1.430305 l 23.77168,5.810498 c 1.26764,5.240165 3.23257,10.208549 5.82885,14.774229 L 434.166,-0.64842569 c -0.38386,0.5862096 -0.30352,1.358891 0.19242,1.85285499 L 445.7498,12.597301 c 0.47908,0.478089 1.22697,0.570334 1.81119,0.219208 z"
             sodipodi:nodetypes="ccccccccccccccccccc" />
        </g>
        <g
           id="g4835-5-6-3-1"
           transform="matrix(-0.20731956,-0.35983709,0.35983709,-0.20731956,958.85963,231.66525)"
           style="fill:#ffffff;fill-opacity:1">
          <path
             id="path79-9-8-1-5"
             style="fill:#ffffff;fill-opacity:1;stroke-width:1.0157"
             d="m 511.14913,-10.724521 1.6818,-79.30352 -23.39543,-23.191379 c -0.58621,-0.38287 -1.3579,-0.30352 -1.85038,0.19243 l -11.39485,11.39287 c -0.47909,0.48057 -0.56935,1.22697 -0.21623,1.808711 l 13.34045,21.970907 c -2.36616,3.977978 -4.26117,8.267419 -5.6166,12.79193 l -24.49228,5.094361 c -0.68143,0.141345 -1.17242,0.744913 -1.17242,1.4442 v 16.111785 c 0,0.681431 0.4652,1.271602 1.12183,1.430305 l 23.77168,5.810498 c 1.26764,5.240165 3.23257,10.208549 5.82885,14.774229 L 474.99652,0.58528012 C 474.61266,1.1714897 474.693,1.9441711 475.18894,2.4381351 l 11.39138,11.3928719 c 0.47908,0.478089 1.22697,0.570335 1.81119,0.219208 z"
             sodipodi:nodetypes="ccccccccccccccccccc" />
        </g>
        <path
           style="fill:#0079c1;fill-opacity:1"
           d="m 850.60524,44.6229 c 0,11.895612 -9.64397,21.540458 -21.54035,21.540458 -11.89591,0 -21.53953,-9.644846 -21.53953,-21.540458 0,-11.895759 9.64362,-21.539088 21.53953,-21.539088 11.89638,0 21.54035,9.643329 21.54035,21.539088 z"
           id="path2819-8-3-8-5" />
      </g>
    </g>
  </g>
</svg>
