<?xml version="1.0" encoding="UTF-8" standalone="no"?>
<svg
   xmlns:dc="http://purl.org/dc/elements/1.1/"
   xmlns:cc="http://creativecommons.org/ns#"
   xmlns:rdf="http://www.w3.org/1999/02/22-rdf-syntax-ns#"
   xmlns:svg="http://www.w3.org/2000/svg"
   xmlns="http://www.w3.org/2000/svg"
   xmlns:xlink="http://www.w3.org/1999/xlink"
   xmlns:sodipodi="http://sodipodi.sourceforge.net/DTD/sodipodi-0.dtd"
   xmlns:inkscape="http://www.inkscape.org/namespaces/inkscape"
   version="1.1"
   id="svg2"
   width="341.5"
   height="49"
   viewBox="0 0 341.5 49"
   sodipodi:docname="ubuntu-budgie-logo.svg"
   inkscape:version="1.0.2 (e86c870879, 2021-01-15)"
   inkscape:export-filename="/home/muqtadir/ubuntu-bgrt-themes/plymouth-theme/src/ubuntu-budgie.png"
   inkscape:export-xdpi="96"
   inkscape:export-ydpi="96">
  <metadata
     id="metadata8">
    <rdf:RDF>
      <cc:Work
         rdf:about="">
        <dc:format>image/svg+xml</dc:format>
        <dc:type
           rdf:resource="http://purl.org/dc/dcmitype/StillImage" />
        <dc:title />
      </cc:Work>
    </rdf:RDF>
  </metadata>
  <defs
     id="defs6" />
  <sodipodi:namedview
     pagecolor="#1d1d1d"
     bordercolor="#666666"
     borderopacity="1"
     objecttolerance="10"
     gridtolerance="10"
     guidetolerance="10"
     inkscape:pageopacity="0"
     inkscape:pageshadow="2"
     inkscape:window-width="1366"
     inkscape:window-height="704"
     id="namedview4"
     showgrid="true"
     inkscape:zoom="1.3845531"
     inkscape:cx="177.00019"
     inkscape:cy="9.1390016"
     inkscape:window-x="0"
     inkscape:window-y="0"
     inkscape:window-maximized="1"
     inkscape:current-layer="g10"
     inkscape:document-rotation="0">
    <inkscape:grid
       type="xygrid"
       id="grid888" />
  </sodipodi:namedview>
  <g
     inkscape:groupmode="layer"
     inkscape:label="Image"
     id="g10">
    <g
       id="g103"
       transform="scale(0.78989219)">
      <g
         id="g3889"
         transform="translate(822.24649,-573.1908)">
        <g
           id="g3769"
           transform="matrix(0.17766664,0,0,0.17766664,-477.25182,413.22648)" />
        <g
           id="text3468"
           style="font-style:normal;font-variant:normal;font-weight:300;font-stretch:normal;font-size:64.4172px;line-height:125%;font-family:'Source Sans Pro';-inkscape-font-specification:'Source Sans Pro Light';text-align:center;letter-spacing:0px;word-spacing:0px;text-anchor:middle;fill:#5a6943;fill-opacity:1;stroke:none" />
        <g
           transform="matrix(0.28222345,0,0,0.28222345,-635.42871,444.58814)"
           id="g17296-6-9-7-0-8">
          <path
             inkscape:connector-curvature="0"
             d="m -571.29888,619.92674 c -4.606,1.153 -10.684,2.375 -18.238,3.669 -7.555,1.296 -16.296,1.942 -26.225,1.942 -8.633,0 -15.901,-1.261 -21.799,-3.775 -5.902,-2.516 -10.65,-6.079 -14.245,-10.685 -3.599,-4.604 -6.188,-10.037 -7.77,-16.296 -1.585,-6.259 -2.374,-13.198 -2.374,-20.827 v -63.023 h 20.073 v 58.706 c 0,13.672 2.158,23.456 6.476,29.354 4.316,5.902 11.581,8.851 21.799,8.851 2.158,0 4.387,-0.072 6.691,-0.218 2.3,-0.141 4.458,-0.323 6.475,-0.539 2.013,-0.216 3.848,-0.431 5.504,-0.646 1.652,-0.216 2.839,-0.465 3.561,-0.755 v -94.753 h 20.073 v 108.995 z"
             id="path8714-8-4-2-7-7-8"
             style="fill:#ffffff" />
          <path
             inkscape:connector-curvature="0"
             d="m -522.30588,515.89474 c 2.445,-1.581 6.151,-3.237 11.115,-4.963 4.964,-1.728 10.684,-2.59 17.159,-2.59 8.057,0 15.216,1.438 21.476,4.315 6.259,2.88 11.547,6.907 15.863,12.088 4.317,5.18 7.588,11.368 9.821,18.562 2.229,7.196 3.346,15.107 3.346,23.74 0,9.066 -1.333,17.235 -3.993,24.5 -2.664,7.266 -6.441,13.417 -11.332,18.452 -4.894,5.039 -10.792,8.923 -17.698,11.656 -6.907,2.731 -14.677,4.1 -23.311,4.1 -9.355,0 -17.627,-0.646 -24.821,-1.942 -7.196,-1.295 -13.095,-2.589 -17.698,-3.885 v -160.799 l 20.073,-3.452 z m 0,89.788 c 2.013,0.576 4.856,1.115 8.526,1.617 3.669,0.506 8.235,0.757 13.705,0.757 10.792,0 19.425,-3.562 25.9,-10.684 6.475,-7.124 9.713,-17.231 9.713,-30.327 0,-5.751 -0.577,-11.148 -1.727,-16.187 -1.153,-5.035 -3.021,-9.388 -5.611,-13.057 -2.59,-3.67 -5.936,-6.547 -10.037,-8.635 -4.101,-2.084 -9.032,-3.129 -14.785,-3.129 -5.47,0 -10.505,0.938 -15.108,2.806 -4.607,1.872 -8.131,3.815 -10.576,5.827 z"
             id="path8716-6-4-4-2-4-6"
             style="fill:#ffffff" />
          <path
             inkscape:connector-curvature="0"
             d="m -331.50988,619.92674 c -4.607,1.153 -10.684,2.375 -18.238,3.669 -7.555,1.296 -16.295,1.942 -26.224,1.942 -8.634,0 -15.901,-1.261 -21.8,-3.775 -5.902,-2.516 -10.65,-6.079 -14.245,-10.685 -3.599,-4.604 -6.188,-10.037 -7.77,-16.296 -1.585,-6.26 -2.375,-13.199 -2.375,-20.828 v -63.022 h 20.073 v 58.706 c 0,13.672 2.158,23.456 6.475,29.354 4.316,5.902 11.581,8.851 21.799,8.851 2.158,0 4.388,-0.072 6.691,-0.218 2.3,-0.141 4.458,-0.323 6.475,-0.539 2.013,-0.216 3.848,-0.431 5.504,-0.646 1.652,-0.216 2.84,-0.465 3.561,-0.755 v -94.753 h 20.073 v 108.995 z"
             id="path8718-7-1-0-6-9-8"
             style="fill:#ffffff" />
          <path
             inkscape:connector-curvature="0"
             d="m -302.59088,514.16874 c 4.604,-1.151 10.717,-2.375 18.347,-3.671 7.625,-1.294 16.402,-1.941 26.33,-1.941 8.922,0 16.33,1.261 22.232,3.776 5.898,2.52 10.609,6.043 14.137,10.576 3.523,4.533 6.006,9.967 7.447,16.296 1.436,6.333 2.158,13.312 2.158,20.937 v 63.023 h -20.074 v -58.708 c 0,-6.905 -0.469,-12.803 -1.402,-17.697 -0.938,-4.89 -2.48,-8.849 -4.641,-11.87 -2.158,-3.023 -5.037,-5.216 -8.633,-6.584 -3.6,-1.367 -8.061,-2.051 -13.381,-2.051 -2.16,0 -4.393,0.074 -6.691,0.216 -2.304,0.145 -4.499,0.325 -6.583,0.541 -2.089,0.215 -3.96,0.469 -5.611,0.755 -1.656,0.29 -2.844,0.506 -3.562,0.646 v 94.751 h -20.073 z"
             id="path8720-5-9-6-9-2-5"
             style="fill:#ffffff" />
          <path
             inkscape:connector-curvature="0"
             d="m -165.53688,510.93174 h 42.52 v 16.835 h -42.52 v 51.799 c 0,5.611 0.43,10.253 1.295,13.921 0.863,3.671 2.158,6.549 3.885,8.634 1.727,2.088 3.885,3.562 6.475,4.425 2.59,0.863 5.611,1.296 9.064,1.296 6.186,0 11.08,-0.682 14.678,-2.051 3.594,-1.366 6.043,-2.337 7.338,-2.913 l 4.316,16.403 c -2.016,1.008 -5.578,2.304 -10.684,3.884 -5.109,1.582 -10.898,2.374 -17.375,2.374 -7.627,0 -13.92,-0.97 -18.885,-2.913 -4.965,-1.943 -8.957,-4.856 -11.979,-8.741 -3.021,-3.886 -5.146,-8.668 -6.367,-14.354 -1.225,-5.682 -1.836,-12.264 -1.836,-19.748 v -100.148 l 20.074,-3.453 v 34.75 z"
             id="path8722-1-1-4-4-40-9"
             style="fill:#ffffff" />
          <path
             inkscape:connector-curvature="0"
             d="m -13.80688,619.92674 c -4.607,1.153 -10.686,2.375 -18.238,3.669 -7.555,1.296 -16.295,1.942 -26.225,1.942 -8.633,0 -15.9,-1.261 -21.799,-3.775 -5.902,-2.516 -10.65,-6.079 -14.246,-10.685 -3.598,-4.604 -6.188,-10.037 -7.77,-16.296 -1.586,-6.26 -2.375,-13.199 -2.375,-20.828 v -63.022 h 20.074 v 58.706 c 0,13.672 2.158,23.456 6.475,29.354 4.316,5.902 11.58,8.851 21.799,8.851 2.158,0 4.387,-0.072 6.691,-0.218 2.299,-0.141 4.459,-0.323 6.475,-0.539 2.014,-0.216 3.848,-0.431 5.504,-0.646 1.652,-0.216 2.84,-0.465 3.561,-0.755 v -94.753 h 20.074 z"
             id="path8724-9-7-7-9-59-8"
             style="fill:#ffffff" />
        </g>
      </g>
      <g
         fill="#404552"
         id="g30"
         transform="matrix(0.36746158,0,0,0.36746158,16.161264,1.7583549)">
        <path
           d="m 575.55351,93.900435 q 0,17.426595 -11.98063,25.552635 -11.98062,8.04291 -33.26058,8.04291 H 486.74584 V 11.543098 h 40.96854 q 22.28529,0 31.92054,6.534908 9.63477,6.451171 9.63477,20.525958 0,10.807696 -5.27824,17.509959 -5.19438,6.702504 -16.33667,8.964504 14.57734,2.010788 21.19659,9.215959 6.7025,7.20517 6.7025,19.605209 z M 545.3923,43.799315 q 0,-6.618646 -4.85931,-9.132101 -4.85932,-2.597191 -15.08,-2.597191 h -15.08 v 24.883208 h 14.41058 q 10.47262,0 15.49929,-2.932383 5.11065,-2.932383 5.11065,-10.221292 z m 6.03224,48.00587 q 0,-7.79157 -5.27824,-10.975287 -5.27824,-3.267454 -19.77196,-3.267454 h -16.00196 v 28.987926 h 11.98063 q 13.82333,0 19.01796,-1.34053 5.27824,-1.34052 7.6241,-4.52412 2.42959,-3.183725 2.42959,-8.880775 z"
           id="path18"
           style="stroke-width:1.20833" />
        <path
           d="m 651.20726,127.49695 v -11.31049 q -5.69705,6.11598 -13.99129,10.0537 -8.21051,3.85386 -15.834,3.85386 -14.91325,0 -20.86188,-8.21051 -5.94838,-8.29436 -5.94838,-23.541965 V 39.611714 h 21.61587 v 48.425171 q 0,9.29969 1.08916,14.242625 1.08915,4.94305 3.51879,6.8701 2.51345,1.84319 7.2889,1.84319 9.63477,0 23.12388,-12.651255 V 39.611714 h 21.61587 v 87.885716 z"
           id="path20"
           style="stroke-width:1.20833" />
        <path
           d="m 754.84601,127.49695 v -8.5457 q -6.03224,5.11065 -12.73463,8.12677 -6.7025,3.01612 -15.24795,3.01612 -16.58921,0 -25.38588,-11.98063 -8.79703,-11.98062 -8.79703,-33.847835 0,-22.369877 9.63477,-34.768585 9.71862,-12.399917 27.22858,-12.399917 6.19984,0 12.73463,2.597191 6.5349,2.513455 10.80769,6.451171 V 2.7470352 h 21.61588 V 127.49537 Z m -1.75933,-63.506385 q -3.43505,-3.099859 -8.5457,-5.445717 -5.02691,-2.429596 -10.30503,-2.429596 -8.71317,0 -13.99129,7.540242 -5.27824,7.456504 -5.27824,20.274621 0,12.65125 4.27278,19.856555 4.35665,7.20517 13.40525,7.20517 5.36198,0 10.89156,-2.4296 5.61331,-2.51345 9.55103,-6.11598 z"
           id="path22"
           style="stroke-width:1.20833" />
        <path
           d="m 876.57351,125.81736 q 0,17.59454 -10.8077,26.13988 -10.80769,8.62943 -34.6852,8.62943 -19.68859,0 -34.43388,-7.54024 l 6.36731,-17.67792 q 13.65659,6.36731 28.06717,6.36731 13.40525,0 18.59987,-3.85385 5.27825,-3.85398 5.27825,-12.98596 v -7.20517 q -10.72396,9.80236 -25.88855,9.80236 -16.08533,0 -25.30129,-11.56182 -9.21596,-11.56181 -9.21596,-33.260585 0,-13.572001 4.27279,-23.877876 4.35665,-10.388888 12.65125,-16.001959 8.3781,-5.69705 20.19125,-5.69705 6.95384,0 13.90792,3.099859 6.95384,3.016121 11.64555,7.707837 l 2.84853,-8.294362 h 16.50462 z M 854.95763,63.98694 q -8.88076,-7.875434 -19.35387,-7.875434 -7.87543,0 -13.32067,7.205171 -5.44571,7.205171 -5.44571,19.017958 0,13.40525 4.77557,19.771965 4.85931,6.36731 12.56667,6.36731 10.72396,0 20.77729,-8.629435 z"
           id="path24"
           style="stroke-width:1.20833" />
        <path
           d="m 923.74684,15.649981 q 0,6.115979 -3.01612,8.545696 -3.01612,2.429596 -9.21596,2.429596 -6.86997,0 -9.38343,-2.848525 -2.42959,-2.848525 -2.42959,-8.126767 0,-5.8646458 2.68105,-8.3780998 2.68105,-2.597192 9.1321,-2.597192 6.5349,0 9.38343,2.513454 2.84852,2.429596 2.84852,8.4618378 z M 900.8743,127.49695 V 39.611231 h 21.61588 v 87.885719 z"
           id="path26"
           style="stroke-width:1.20833" />
        <path
           d="m 964.62476,89.208485 q 0.58647,11.729295 5.69705,16.840545 5.11059,5.11125 16.08533,5.11064 6.36732,0 11.14289,-1.59185 4.85927,-1.59186 8.46177,-6.11598 l 16.0854,11.47796 q -5.2783,7.6241 -13.74,11.39422 -8.37806,3.77012 -22.95587,3.77012 -21.69925,0 -32.42321,-11.39422 -10.64022,-11.39422 -10.64022,-34.433885 0,-47.1685 42.22521,-47.1685 18.76659,0 28.56979,10.640221 9.8861,10.556363 9.8861,30.831834 v 10.640225 z m 36.94714,-14.913254 q 0,-20.023291 -17.50989,-20.023291 -5.78091,0 -9.46729,2.010787 -3.68638,1.926929 -5.94838,5.864646 -2.17827,3.853979 -3.43505,12.148583 z"
           id="path28"
           style="stroke-width:1.20833" />
      </g>
      <circle
         fill="#404552"
         cy="16.53137"
         cx="415.31998"
         id="circle32"
         style="stroke-width:0.516605"
         r="16.53137" />
      <path
         id="budgie-shape"
         fill="#ffffff"
         d="m 421.00274,19.376827 c -2.26789,0 -4.17416,1.610774 -4.7786,3.745386 -0.12755,0.450482 -0.21542,0.604429 -0.38744,0.904062 -0.22214,0.385904 -0.67159,0.942804 -1.29152,1.291514 -0.50473,0.284131 -0.9392,0.525386 -1.58908,0.427232 -0.16894,-0.02582 -0.46856,-0.07233 -0.76871,-0.244871 -0.47787,-0.273802 -0.63542,-0.516606 -1.00066,-1.214024 0.0517,0.745979 -0.0454,1.017715 0.32132,2.324726 0.72996,2.601623 3.53617,4.649449 6.84503,4.649449 2.45283,0 4.72591,-1.022879 6.00502,-2.583027 0.46753,-0.570334 0.81984,-1.020297 1.16236,-1.808121 0.31151,-0.715498 0.38744,-1.633506 0.38744,-2.453874 0.001,-2.784503 -2.1966,-5.036903 -4.90775,-5.036903 z"
         style="stroke-width:0.516605" />
      <use
         xlink:href="#budgie-shape"
         transform="rotate(120,415.31998,16.531368)"
         width="100%"
         height="100%"
         id="use35"
         x="0"
         y="0" />
      <use
         xlink:href="#budgie-shape"
         transform="rotate(-120,415.31998,16.531371)"
         width="100%"
         height="100%"
         id="use37"
         x="0"
         y="0" />
    </g>
  </g>
</svg>
