<?xml version="1.0" encoding="UTF-8" standalone="no"?>
<svg
   xmlns:dc="http://purl.org/dc/elements/1.1/"
   xmlns:cc="http://creativecommons.org/ns#"
   xmlns:rdf="http://www.w3.org/1999/02/22-rdf-syntax-ns#"
   xmlns:svg="http://www.w3.org/2000/svg"
   xmlns="http://www.w3.org/2000/svg"
   xmlns:sodipodi="http://sodipodi.sourceforge.net/DTD/sodipodi-0.dtd"
   xmlns:inkscape="http://www.inkscape.org/namespaces/inkscape"
   version="1.1"
   id="svg2"
   width="372.5"
   height="49"
   viewBox="0 0 372.5 49"
   sodipodi:docname="ubuntu-MATE-logo.svg"
   inkscape:version="1.0.2 (e86c870879, 2021-01-15)"
   inkscape:export-filename="/home/muqtadir/ubuntu-bgrt-themes/plymouth-theme/src/ubuntu-mate.png"
   inkscape:export-xdpi="96"
   inkscape:export-ydpi="96">
  <metadata
     id="metadata8">
    <rdf:RDF>
      <cc:Work
         rdf:about="">
        <dc:format>image/svg+xml</dc:format>
        <dc:type
           rdf:resource="http://purl.org/dc/dcmitype/StillImage" />
        <dc:title />
      </cc:Work>
    </rdf:RDF>
  </metadata>
  <defs
     id="defs6" />
  <sodipodi:namedview
     pagecolor="#1d1d1d"
     bordercolor="#666666"
     borderopacity="1"
     objecttolerance="10"
     gridtolerance="10"
     guidetolerance="10"
     inkscape:pageopacity="0"
     inkscape:pageshadow="2"
     inkscape:window-width="1366"
     inkscape:window-height="704"
     id="namedview4"
     showgrid="true"
     inkscape:zoom="3.9161075"
     inkscape:cx="298.69692"
     inkscape:cy="13.251613"
     inkscape:window-x="0"
     inkscape:window-y="0"
     inkscape:window-maximized="1"
     inkscape:current-layer="g10"
     inkscape:document-rotation="0">
    <inkscape:grid
       type="xygrid"
       id="grid888" />
  </sodipodi:namedview>
  <g
     inkscape:groupmode="layer"
     inkscape:label="Image"
     id="g10">
    <g
       id="g3889"
       transform="translate(822.24649,-573.1908)">
      <g
         id="g3769"
         transform="matrix(0.17766664,0,0,0.17766664,-477.25182,413.22648)">
        <path
           style="fill:#87a556;fill-opacity:1;stroke-width:1.02079"
           inkscape:connector-curvature="0"
           d="m 154.99439,973.86038 c 0,40.58962 -32.90658,73.49622 -73.497683,73.49622 C 40.905083,1047.3566 8,1014.4505 8,973.86038 c 0,-40.59266 32.904572,-73.4982 73.496196,-73.4982 40.591104,0 73.498194,32.90554 73.498194,73.4982 z"
           id="path3171-7-3-3-8-7-0-9-6-6" />
        <path
           style="color:#000000;font-style:normal;font-variant:normal;font-weight:normal;font-stretch:normal;font-size:medium;line-height:normal;font-family:Sans;-inkscape-font-specification:Sans;text-indent:0;text-align:start;text-decoration:none;text-decoration-line:none;letter-spacing:normal;word-spacing:normal;text-transform:none;writing-mode:lr-tb;direction:ltr;baseline-shift:baseline;text-anchor:start;display:inline;overflow:visible;visibility:visible;fill:#ffffff;fill-opacity:1;stroke:none;stroke-width:1.19507;marker:none;enable-background:accumulate"
           d="m 81.497197,928.91252 c -18.50797,0 -34.434064,11.27663 -41.310274,27.30625 l 5.295371,3.12619 c 5.727401,-14.23861 19.689186,-24.24387 36.014903,-24.24387 2.100036,0 4.152559,0.18622 6.156666,0.5104 v -6.25237 c -2.015231,-0.27971 -4.062749,-0.4466 -6.156666,-0.4466 z m 18.406199,3.95558 -0.0319,6.85846 c 1.020584,0.5482 2.003834,1.15215 2.966684,1.78639 l 5.80577,-3.41328 c -2.69775,-2.05359 -5.61658,-3.82251 -8.740554,-5.23157 z m -18.406199,11.32444 c -12.89179,0 -23.917465,8.32529 -27.976147,19.87359 l 5.48677,3.25378 c 2.81662,-9.78248 11.767885,-16.9069 22.489377,-16.9069 2.119909,0 4.172003,0.27543 6.124766,0.79749 v -6.34806 c -1.978729,-0.42032 -4.02812,-0.6699 -6.124766,-0.6699 z m 36.046803,2.83908 -5.32727,3.15809 c 5.03749,6.53902 8.03875,14.7487 8.03875,23.66967 0,9.09172 -3.11313,17.42173 -8.32585,24.02056 l 5.32727,3.15806 c 5.75101,-7.55379 9.18715,-16.98337 9.18715,-27.17862 0,-10.03881 -3.30958,-19.33279 -8.90005,-26.82776 z m -13.30223,7.87926 -5.391068,3.15808 c 3.785148,4.16233 6.092868,9.68903 6.092868,15.79042 0,6.27972 -2.45635,11.92181 -6.443767,16.10941 l 5.454867,3.22188 c 4.48211,-5.2022 7.20936,-11.97239 7.20936,-19.33129 0,-7.19633 -2.61519,-13.79687 -6.92226,-18.9485 z m -67.340529,13.55743 c -0.2217,1.7658 -0.350898,3.56347 -0.350898,5.39107 0,1.82028 0.138108,3.59883 0.350898,5.35917 l 5.901468,-3.47708 c -0.03004,-0.62298 -0.0638,-1.25062 -0.0638,-1.88209 0,-0.63147 0.03376,-1.25912 0.0638,-1.88209 z m 22.106579,11.93053 -5.48677,3.22188 c 4.050103,11.56238 15.07441,19.90548 27.976147,19.90548 2.096646,0 4.146037,-0.2496 6.124766,-0.6699 v -6.37995 c -1.953284,0.51296 -4.004456,0.7975 -6.124766,0.7975 -10.721492,0 -19.672757,-7.10025 -22.489377,-16.87501 z m -13.525526,7.97496 -5.295371,3.12618 c 6.87621,16.02962 22.802304,27.30622 41.310274,27.30622 2.068847,0 4.10176,-0.1696 6.092866,-0.4466 v -6.2204 c -1.986609,0.3135 -4.013199,0.4785 -6.092866,0.4785 -16.325717,0 -30.287502,-10.0053 -36.014903,-24.2439 z m 56.941186,18.1191 c -0.82304,0.5283 -1.6877,1.0331 -2.551984,1.4993 l -0.0319,6.8585 c 2.978434,-1.3429 5.796144,-2.9812 8.389654,-4.9126 z"
           id="path9"
           inkscape:connector-curvature="0" />
        <path
           style="display:inline;fill:#ffffff;fill-opacity:1;fill-rule:evenodd;stroke:none;stroke-width:1.02079;enable-background:new"
           d="m 93.778629,920.23577 -0.0319,33.75002 28.582241,-16.87501 z m -64.310047,36.7486 -0.0319,33.75001 28.582244,-16.875 z m 64.278148,37.29089 -0.0319,33.71814 28.58224,-16.875 z"
           id="path5227"
           inkscape:connector-curvature="0" />
      </g>
      <g
         id="text3468"
         style="font-style:normal;font-variant:normal;font-weight:300;font-stretch:normal;font-size:64.4172px;line-height:125%;font-family:'Source Sans Pro';-inkscape-font-specification:'Source Sans Pro Light';text-align:center;letter-spacing:0px;word-spacing:0px;text-anchor:middle;fill:#5a6943;fill-opacity:1;stroke:none">
        <path
           id="path3832"
           style="font-weight:bold;-inkscape-font-specification:'Source Sans Pro Bold';fill:#5a6943"
           d="m -627.22483,621.1908 h 8.69631 v -15.39571 c 0,-4.12269 -0.70859,-10.24233 -1.1595,-14.30061 h 0.25766 l 3.3497,9.72699 6.44171,16.29755 h 3.80062 l 6.44172,-16.29755 3.47852,-9.72699 h 0.25767 c -0.45092,4.05828 -1.22392,10.17792 -1.22392,14.30061 v 15.39571 h 8.82515 v -42 h -9.98466 l -6.82822,18.87423 -2.51227,7.34356 h -0.25767 l -2.51227,-7.34356 -7.02148,-18.87423 h -10.04907 v 42" />
        <path
           id="path3834"
           style="font-weight:bold;-inkscape-font-specification:'Source Sans Pro Bold';fill:#5a6943"
           d="m -569.33191,603.79816 1.03068,-3.86503 c 1.1595,-4.18711 2.2546,-9.08283 3.28527,-13.52761 h 0.25767 c 1.09509,4.38036 2.2546,9.3405 3.41411,13.52761 l 0.96626,3.86503 h -8.95399 m 13.46319,17.39264 h 10.04908 l -13.1411,-42 h -11.40184 l -13.14111,42 h 9.66258 l 2.57669,-9.98467 h 12.81901 l 2.57669,9.98467" />
        <path
           id="path3836"
           style="font-weight:bold;-inkscape-font-specification:'Source Sans Pro Bold';fill:#5a6943"
           d="m -535.62865,621.1908 h 9.53375 v -34.01227 h 11.53067 v -7.98773 h -32.59509 v 7.98773 h 11.53067 v 34.01227" />
        <path
           id="path3838"
           style="font-weight:bold;-inkscape-font-specification:'Source Sans Pro Bold';fill:#5a6943"
           d="m -507.9524,621.1908 h 26.92638 v -7.98773 h -17.45706 v -9.66258 h 14.30061 v -7.92331 h -14.30061 v -8.43865 h 16.81288 v -7.98773 h -26.2822 v 42" />
      </g>
      <g
         transform="matrix(0.28222345,0,0,0.28222345,-635.42871,444.58814)"
         id="g17296-6-9-7-0-8">
        <path
           inkscape:connector-curvature="0"
           d="m -571.29888,619.92674 c -4.606,1.153 -10.684,2.375 -18.238,3.669 -7.555,1.296 -16.296,1.942 -26.225,1.942 -8.633,0 -15.901,-1.261 -21.799,-3.775 -5.902,-2.516 -10.65,-6.079 -14.245,-10.685 -3.599,-4.604 -6.188,-10.037 -7.77,-16.296 -1.585,-6.259 -2.374,-13.198 -2.374,-20.827 v -63.023 h 20.073 v 58.706 c 0,13.672 2.158,23.456 6.476,29.354 4.316,5.902 11.581,8.851 21.799,8.851 2.158,0 4.387,-0.072 6.691,-0.218 2.3,-0.141 4.458,-0.323 6.475,-0.539 2.013,-0.216 3.848,-0.431 5.504,-0.646 1.652,-0.216 2.839,-0.465 3.561,-0.755 v -94.753 h 20.073 v 108.995 z"
           id="path8714-8-4-2-7-7-8"
           style="fill:#ffffff" />
        <path
           inkscape:connector-curvature="0"
           d="m -522.30588,515.89474 c 2.445,-1.581 6.151,-3.237 11.115,-4.963 4.964,-1.728 10.684,-2.59 17.159,-2.59 8.057,0 15.216,1.438 21.476,4.315 6.259,2.88 11.547,6.907 15.863,12.088 4.317,5.18 7.588,11.368 9.821,18.562 2.229,7.196 3.346,15.107 3.346,23.74 0,9.066 -1.333,17.235 -3.993,24.5 -2.664,7.266 -6.441,13.417 -11.332,18.452 -4.894,5.039 -10.792,8.923 -17.698,11.656 -6.907,2.731 -14.677,4.1 -23.311,4.1 -9.355,0 -17.627,-0.646 -24.821,-1.942 -7.196,-1.295 -13.095,-2.589 -17.698,-3.885 v -160.799 l 20.073,-3.452 z m 0,89.788 c 2.013,0.576 4.856,1.115 8.526,1.617 3.669,0.506 8.235,0.757 13.705,0.757 10.792,0 19.425,-3.562 25.9,-10.684 6.475,-7.124 9.713,-17.231 9.713,-30.327 0,-5.751 -0.577,-11.148 -1.727,-16.187 -1.153,-5.035 -3.021,-9.388 -5.611,-13.057 -2.59,-3.67 -5.936,-6.547 -10.037,-8.635 -4.101,-2.084 -9.032,-3.129 -14.785,-3.129 -5.47,0 -10.505,0.938 -15.108,2.806 -4.607,1.872 -8.131,3.815 -10.576,5.827 z"
           id="path8716-6-4-4-2-4-6"
           style="fill:#ffffff" />
        <path
           inkscape:connector-curvature="0"
           d="m -331.50988,619.92674 c -4.607,1.153 -10.684,2.375 -18.238,3.669 -7.555,1.296 -16.295,1.942 -26.224,1.942 -8.634,0 -15.901,-1.261 -21.8,-3.775 -5.902,-2.516 -10.65,-6.079 -14.245,-10.685 -3.599,-4.604 -6.188,-10.037 -7.77,-16.296 -1.585,-6.26 -2.375,-13.199 -2.375,-20.828 v -63.022 h 20.073 v 58.706 c 0,13.672 2.158,23.456 6.475,29.354 4.316,5.902 11.581,8.851 21.799,8.851 2.158,0 4.388,-0.072 6.691,-0.218 2.3,-0.141 4.458,-0.323 6.475,-0.539 2.013,-0.216 3.848,-0.431 5.504,-0.646 1.652,-0.216 2.84,-0.465 3.561,-0.755 v -94.753 h 20.073 v 108.995 z"
           id="path8718-7-1-0-6-9-8"
           style="fill:#ffffff" />
        <path
           inkscape:connector-curvature="0"
           d="m -302.59088,514.16874 c 4.604,-1.151 10.717,-2.375 18.347,-3.671 7.625,-1.294 16.402,-1.941 26.33,-1.941 8.922,0 16.33,1.261 22.232,3.776 5.898,2.52 10.609,6.043 14.137,10.576 3.523,4.533 6.006,9.967 7.447,16.296 1.436,6.333 2.158,13.312 2.158,20.937 v 63.023 h -20.074 v -58.708 c 0,-6.905 -0.469,-12.803 -1.402,-17.697 -0.938,-4.89 -2.48,-8.849 -4.641,-11.87 -2.158,-3.023 -5.037,-5.216 -8.633,-6.584 -3.6,-1.367 -8.061,-2.051 -13.381,-2.051 -2.16,0 -4.393,0.074 -6.691,0.216 -2.304,0.145 -4.499,0.325 -6.583,0.541 -2.089,0.215 -3.96,0.469 -5.611,0.755 -1.656,0.29 -2.844,0.506 -3.562,0.646 v 94.751 h -20.073 z"
           id="path8720-5-9-6-9-2-5"
           style="fill:#ffffff" />
        <path
           inkscape:connector-curvature="0"
           d="m -165.53688,510.93174 h 42.52 v 16.835 h -42.52 v 51.799 c 0,5.611 0.43,10.253 1.295,13.921 0.863,3.671 2.158,6.549 3.885,8.634 1.727,2.088 3.885,3.562 6.475,4.425 2.59,0.863 5.611,1.296 9.064,1.296 6.186,0 11.08,-0.682 14.678,-2.051 3.594,-1.366 6.043,-2.337 7.338,-2.913 l 4.316,16.403 c -2.016,1.008 -5.578,2.304 -10.684,3.884 -5.109,1.582 -10.898,2.374 -17.375,2.374 -7.627,0 -13.92,-0.97 -18.885,-2.913 -4.965,-1.943 -8.957,-4.856 -11.979,-8.741 -3.021,-3.886 -5.146,-8.668 -6.367,-14.354 -1.225,-5.682 -1.836,-12.264 -1.836,-19.748 v -100.148 l 20.074,-3.453 v 34.75 z"
           id="path8722-1-1-4-4-40-9"
           style="fill:#ffffff" />
        <path
           inkscape:connector-curvature="0"
           d="m -13.80688,619.92674 c -4.607,1.153 -10.686,2.375 -18.238,3.669 -7.555,1.296 -16.295,1.942 -26.225,1.942 -8.633,0 -15.9,-1.261 -21.799,-3.775 -5.902,-2.516 -10.65,-6.079 -14.246,-10.685 -3.598,-4.604 -6.188,-10.037 -7.77,-16.296 -1.586,-6.26 -2.375,-13.199 -2.375,-20.828 v -63.022 h 20.074 v 58.706 c 0,13.672 2.158,23.456 6.475,29.354 4.316,5.902 11.58,8.851 21.799,8.851 2.158,0 4.387,-0.072 6.691,-0.218 2.299,-0.141 4.459,-0.323 6.475,-0.539 2.014,-0.216 3.848,-0.431 5.504,-0.646 1.652,-0.216 2.84,-0.465 3.561,-0.755 v -94.753 h 20.074 z"
           id="path8724-9-7-7-9-59-8"
           style="fill:#ffffff" />
      </g>
    </g>
  </g>
</svg>
