<?xml version="1.0" encoding="UTF-8" standalone="no"?>
<svg
   xmlns:dc="http://purl.org/dc/elements/1.1/"
   xmlns:cc="http://creativecommons.org/ns#"
   xmlns:rdf="http://www.w3.org/1999/02/22-rdf-syntax-ns#"
   xmlns:svg="http://www.w3.org/2000/svg"
   xmlns="http://www.w3.org/2000/svg"
   xmlns:sodipodi="http://sodipodi.sourceforge.net/DTD/sodipodi-0.dtd"
   xmlns:inkscape="http://www.inkscape.org/namespaces/inkscape"
   version="1.1"
   id="svg2"
   width="251.5"
   height="49"
   viewBox="0 0 251.5 49"
   sodipodi:docname="xubuntu-logo.svg"
   inkscape:version="1.0.2 (e86c870879, 2021-01-15)"
   inkscape:export-filename="/home/muqtadir/ubuntu-bgrt-themes/plymouth-theme/src/xubuntu.png"
   inkscape:export-xdpi="96"
   inkscape:export-ydpi="96">
  <metadata
     id="metadata8">
    <rdf:RDF>
      <cc:Work
         rdf:about="">
        <dc:format>image/svg+xml</dc:format>
        <dc:type
           rdf:resource="http://purl.org/dc/dcmitype/StillImage" />
        <dc:title />
      </cc:Work>
    </rdf:RDF>
  </metadata>
  <defs
     id="defs6" />
  <sodipodi:namedview
     pagecolor="#1d1d1d"
     bordercolor="#666666"
     borderopacity="1"
     objecttolerance="10"
     gridtolerance="10"
     guidetolerance="10"
     inkscape:pageopacity="0"
     inkscape:pageshadow="2"
     inkscape:window-width="1366"
     inkscape:window-height="704"
     id="namedview4"
     showgrid="true"
     inkscape:zoom="5.5382122"
     inkscape:cx="197.809"
     inkscape:cy="20.784878"
     inkscape:window-x="0"
     inkscape:window-y="27"
     inkscape:window-maximized="1"
     inkscape:current-layer="g84"
     inkscape:document-rotation="0">
    <inkscape:grid
       type="xygrid"
       id="grid888" />
  </sodipodi:namedview>
  <g
     inkscape:groupmode="layer"
     inkscape:label="Image"
     id="g10">
    <g
       id="g84"
       transform="matrix(1.0244929,0,0,1.0244929,31.000003,0)">
      <g
         id="g71">
        <g
           style="display:inline;fill:#ffffff;fill-opacity:1"
           id="g3200"
           transform="matrix(0.87274704,0,0,0.87274704,-143.37987,-443.43894)">
          <path
             inkscape:export-ydpi="88.292778"
             inkscape:export-xdpi="88.292778"
             inkscape:export-filename="/ssh/nebula/public_html/temp/xubuntu/web_improvements/wp-content/themes/xubuntu-wp/images/xubuntu-logo.png"
             inkscape:connector-curvature="0"
             d="m 187.63909,562.15059 c -0.45671,-0.91338 -1.01719,-1.93054 -1.68144,-3.05151 -0.6643,-1.12096 -1.39085,-2.26268 -2.17964,-3.42517 -0.78886,-1.20398 -1.59844,-2.38722 -2.42877,-3.54971 -0.83036,-1.16247 -1.63994,-2.26267 -2.42875,-3.30061 -0.78883,1.03794 -1.59842,2.1589 -2.42874,3.36288 -0.83036,1.1625 -1.63994,2.34573 -2.42876,3.54973 -0.74731,1.16247 -1.45311,2.3042 -2.11738,3.42515 -0.66427,1.12097 -1.22475,2.11738 -1.68143,2.98924 h -5.97847 c 1.4531,-2.82316 3.17606,-5.68784 5.16889,-8.59405 2.03432,-2.9477 4.04789,-5.75011 6.04073,-8.40722 l -10.71142,-15.38209 h 6.53895 l 7.72219,11.33418 7.78446,-11.33418 h 6.16529 l -10.46231,15.00844 c 1.9928,2.69863 4.02713,5.5633 6.10301,8.59405 2.11734,2.98924 3.90258,5.91619 5.35572,8.78087 h -6.35213"
             style="font-style:normal;font-weight:normal;font-size:49.4924px;font-family:ubuntubeta;-inkscape-font-specification:ubuntubeta;display:inline;fill:#ffffff;fill-opacity:1;stroke:none"
             id="path2826" />
          <path
             inkscape:export-ydpi="88.292778"
             inkscape:export-xdpi="88.292778"
             inkscape:export-filename="/ssh/nebula/public_html/temp/xubuntu/web_improvements/wp-content/themes/xubuntu-wp/images/xubuntu-logo.png"
             inkscape:connector-curvature="0"
             d="m 223.6765,561.21645 c -1.32858,0.33214 -3.09305,0.68503 -5.29344,1.05869 -2.15892,0.37365 -4.6707,0.56048 -7.53536,0.56048 -2.49105,0 -4.58765,-0.35289 -6.28984,-1.05868 -1.70221,-0.74731 -3.07228,-1.78524 -4.1102,-3.11379 -1.03793,-1.32854 -1.78523,-2.88544 -2.24192,-4.67067 -0.45669,-1.82675 -0.68504,-3.84033 -0.68504,-6.04075 v -18.1845 h 5.79165 v 16.93899 c -2e-5,3.94413 0.62275,6.7673 1.86826,8.46949 1.2455,1.70221 3.34212,2.55331 6.28985,2.5533 0.62274,10e-6 1.26625,-0.0207 1.93055,-0.0623 0.66425,-0.0415 1.287,-0.083 1.86827,-0.12454 0.58121,-0.083 1.10018,-0.1453 1.55689,-0.18683 0.49819,-0.083 0.85108,-0.16606 1.05868,-0.24911 v -27.33902 h 5.79165 v 31.44922"
             style="font-style:normal;font-weight:normal;font-size:49.4924px;font-family:ubuntubeta;-inkscape-font-specification:ubuntubeta;display:inline;fill:#ffffff;fill-opacity:1;stroke:none"
             id="path2828" />
          <path
             inkscape:export-ydpi="88.292778"
             inkscape:export-xdpi="88.292778"
             inkscape:export-filename="/ssh/nebula/public_html/temp/xubuntu/web_improvements/wp-content/themes/xubuntu-wp/images/xubuntu-logo.png"
             inkscape:connector-curvature="0"
             d="m 235.29792,531.19957 c 0.70578,-0.45666 1.76447,-0.9341 3.17606,-1.43234 1.45308,-0.49818 3.11377,-0.74728 4.98206,-0.74731 2.32493,3e-5 4.38003,0.41521 6.16529,1.24552 1.82673,0.83036 3.36286,1.99284 4.6084,3.48744 1.24548,1.49464 2.17963,3.27987 2.8024,5.3557 0.66425,2.07588 0.99639,4.35932 0.99641,6.85033 -2e-5,2.61559 -0.39444,4.98207 -1.18322,7.09943 -0.74735,2.07587 -1.82678,3.84033 -3.23835,5.29343 -1.41161,1.4531 -3.11381,2.57406 -5.1066,3.36289 -1.99285,0.78883 -4.23476,1.18324 -6.72578,1.18324 -2.69863,0 -5.08586,-0.18683 -7.16169,-0.56049 -2.07588,-0.37365 -3.77808,-0.74731 -5.10662,-1.12096 v -46.39539 l 5.79164,-0.99641 v 17.37492 m 0,25.90668 c 0.58123,0.16608 1.39081,0.33215 2.42875,0.49821 1.07943,0.12456 2.40798,0.18684 3.98566,0.18683 3.11375,10e-6 5.60477,-1.01716 7.47307,-3.05151 1.86824,-2.07584 2.80238,-5.0028 2.8024,-8.78087 -2e-5,-1.66067 -0.16609,-3.21756 -0.4982,-4.67068 -0.33217,-1.45308 -0.87188,-2.69859 -1.61917,-3.73655 -0.74733,-1.07941 -1.72298,-1.90975 -2.92696,-2.49102 -1.1625,-0.62273 -2.57407,-0.93411 -4.23473,-0.93413 -1.57768,2e-5 -3.03078,0.26988 -4.35931,0.80958 -1.32857,0.53975 -2.34573,1.10023 -3.05151,1.68145 v 20.48869"
             style="font-style:normal;font-weight:normal;font-size:49.4924px;font-family:ubuntubeta;-inkscape-font-specification:ubuntubeta;display:inline;fill:#ffffff;fill-opacity:1;stroke:none"
             id="path2830" />
          <path
             inkscape:export-ydpi="88.292778"
             inkscape:export-xdpi="88.292778"
             inkscape:export-filename="/ssh/nebula/public_html/temp/xubuntu/web_improvements/wp-content/themes/xubuntu-wp/images/xubuntu-logo.png"
             inkscape:connector-curvature="0"
             d="m 289.24734,561.21645 c -1.32858,0.33214 -3.09305,0.68503 -5.29343,1.05869 -2.15892,0.37365 -4.67071,0.56048 -7.53536,0.56048 -2.49104,0 -4.58766,-0.35289 -6.28984,-1.05868 -1.70222,-0.74731 -3.07228,-1.78524 -4.1102,-3.11379 -1.03794,-1.32854 -1.78524,-2.88544 -2.24192,-4.67067 -0.4567,-1.82675 -0.68503,-3.84033 -0.68503,-6.04075 v -18.1845 h 5.79163 v 16.93899 c -1e-5,3.94413 0.62275,6.7673 1.86827,8.46949 1.24551,1.70221 3.34211,2.55331 6.28984,2.5533 0.62274,10e-6 1.26626,-0.0207 1.93055,-0.0623 0.66426,-0.0415 1.28701,-0.083 1.86827,-0.12454 0.58122,-0.083 1.10018,-0.1453 1.5569,-0.18683 0.49818,-0.083 0.85108,-0.16606 1.05869,-0.24911 v -27.33902 h 5.79163 v 31.44922"
             style="font-style:normal;font-weight:normal;font-size:49.4924px;font-family:ubuntubeta;-inkscape-font-specification:ubuntubeta;display:inline;fill:#ffffff;fill-opacity:1;stroke:none"
             id="path2832" />
          <path
             inkscape:export-ydpi="88.292778"
             inkscape:export-xdpi="88.292778"
             inkscape:export-filename="/ssh/nebula/public_html/temp/xubuntu/web_improvements/wp-content/themes/xubuntu-wp/images/xubuntu-logo.png"
             inkscape:connector-curvature="0"
             d="m 294.31033,530.70136 c 1.32853,-0.3321 3.09302,-0.685 5.29343,-1.05868 2.20039,-0.37363 4.73293,-0.56045 7.59763,-0.56049 2.57404,4e-5 4.71218,0.3737 6.41441,1.12096 1.70217,0.70583 3.05147,1.72299 4.04791,3.05151 1.0379,1.28707 1.76445,2.84396 2.17966,4.67069 0.41513,1.82677 0.62272,3.84034 0.62275,6.04074 v 18.1845 h -5.79164 v -16.93898 c -3e-5,-1.99282 -0.14533,-3.69501 -0.43593,-5.10662 -0.24913,-1.41156 -0.68506,-2.55328 -1.3078,-3.42516 -0.62277,-0.87184 -1.45311,-1.49459 -2.49101,-1.86827 -1.03795,-0.41515 -2.32499,-0.62273 -3.8611,-0.62276 -0.62277,3e-5 -1.26629,0.0208 -1.93054,0.0622 -0.66429,0.0415 -1.30782,0.10382 -1.93056,0.18682 -0.58125,0.0415 -1.12097,0.10382 -1.61916,0.18683 -0.4567,0.083 -0.78883,0.14534 -0.99641,0.18682 v 27.33904 h -5.79164 v -31.44923"
             style="font-style:normal;font-weight:normal;font-size:49.4924px;font-family:ubuntubeta;-inkscape-font-specification:ubuntubeta;display:inline;fill:#ffffff;fill-opacity:1;stroke:none"
             id="path2834" />
          <path
             inkscape:export-ydpi="88.292778"
             inkscape:export-xdpi="88.292778"
             inkscape:export-filename="/ssh/nebula/public_html/temp/xubuntu/web_improvements/wp-content/themes/xubuntu-wp/images/xubuntu-logo.png"
             inkscape:connector-curvature="0"
             d="m 331.32076,529.76723 h 12.26831 v 4.8575 h -12.26831 v 14.94617 c -2e-5,1.61918 0.12456,2.96848 0.37365,4.04792 0.24909,1.03793 0.62274,1.86828 1.12096,2.49103 0.49819,0.58124 1.12095,0.99641 1.86827,1.24551 0.74729,0.2491 1.61915,0.37366 2.61558,0.37365 1.7437,10e-6 3.13453,-0.18682 4.17247,-0.56047 1.07942,-0.41517 1.82674,-0.70579 2.24193,-0.87187 l 1.12095,4.79523 c -0.58126,0.29063 -1.59842,0.64352 -3.05151,1.05869 -1.4531,0.45669 -3.11379,0.68503 -4.98205,0.68503 -2.20041,0 -4.02717,-0.26986 -5.48025,-0.80958 -1.4116,-0.58124 -2.55331,-1.43234 -3.42517,-2.55331 -0.87186,-1.12096 -1.49462,-2.49101 -1.86827,-4.11019 -0.33213,-1.66067 -0.49821,-3.57047 -0.49821,-5.72937 v -28.89592 l 5.79165,-0.9964 v 10.02638"
             style="font-style:normal;font-weight:normal;font-size:49.4924px;font-family:ubuntubeta;-inkscape-font-specification:ubuntubeta;display:inline;fill:#ffffff;fill-opacity:1;stroke:none"
             id="path2836" />
          <path
             inkscape:export-ydpi="88.292778"
             inkscape:export-xdpi="88.292778"
             inkscape:export-filename="/ssh/nebula/public_html/temp/xubuntu/web_improvements/wp-content/themes/xubuntu-wp/images/xubuntu-logo.png"
             inkscape:connector-curvature="0"
             d="m 375.2866,561.21645 c -1.32858,0.33214 -3.09304,0.68503 -5.29343,1.05869 -2.15892,0.37365 -4.6707,0.56048 -7.53536,0.56048 -2.49105,0 -4.58765,-0.35289 -6.28984,-1.05868 -1.70221,-0.74731 -3.07228,-1.78524 -4.1102,-3.11379 -1.03793,-1.32854 -1.78525,-2.88544 -2.24193,-4.67067 -0.45668,-1.82675 -0.68504,-3.84033 -0.68502,-6.04075 v -18.1845 h 5.79163 v 16.93899 c -1e-5,3.94413 0.62275,6.7673 1.86827,8.46949 1.2455,1.70221 3.34211,2.55331 6.28985,2.5533 0.62274,10e-6 1.26624,-0.0207 1.93055,-0.0623 0.66425,-0.0415 1.287,-0.083 1.86826,-0.12454 0.58122,-0.083 1.10019,-0.1453 1.5569,-0.18683 0.49818,-0.083 0.85107,-0.16606 1.05869,-0.24911 v -27.33902 h 5.79163 v 31.44922"
             style="font-style:normal;font-weight:normal;font-size:49.4924px;font-family:ubuntubeta;-inkscape-font-specification:ubuntubeta;display:inline;fill:#ffffff;fill-opacity:1;stroke:none"
             id="path2838" />
        </g>
        <g
           transform="matrix(0.61565033,0,0,0.61565033,-118.63291,-304.15073)"
           id="g1980"
           style="stroke-width:0.974585">
          <circle
             style="fill:#0044aa;fill-opacity:1;stroke:none;stroke-width:0.630527"
             id="path12878"
             inkscape:export-filename="/ssh/nebula/public_html/temp/xubuntu/precise_logo/logo_bigsizes.png"
             inkscape:export-xdpi="92.220436"
             inkscape:export-ydpi="92.220436"
             cx="520.9787"
             cy="514.73462"
             r="20.703014" />
          <path
             sodipodi:nodetypes="ssssssssscsssssssscscs"
             id="path12949"
             d="m 514.96267,505.49757 c -0.29923,1.48505 0.13076,3.18493 0.73187,5.24045 0.0363,0.12402 -0.034,0.28271 -0.0975,0.3012 -0.27292,0.0795 -0.74088,-0.005 -0.83145,-0.19107 -0.46839,-0.96176 -0.69112,-1.94528 -1.23829,-2.89208 -0.37847,-0.65491 -0.76997,-1.2798 -1.23632,-1.70234 -0.56645,-0.51325 -1.01032,-0.61411 -1.61641,-0.36089 -0.76458,0.31944 -1.22648,1.08531 -1.38491,1.77209 -0.16079,0.69695 -0.0935,1.50151 0.0322,2.1997 0.14806,0.82175 0.33641,1.47023 0.57851,2.23919 -0.18471,0.54613 -1.29638,3.54352 -1.56515,5.62148 -0.34502,2.66755 -1.31533,10.73881 7.57821,9.84144 3.28029,-0.33098 5.9533,-1.4806 8.48281,-2.66008 1.15916,-0.5405 2.61331,-1.2378 4.01121,-2.00561 1.39858,-0.76816 2.69604,-1.58693 3.68772,-2.45848 0.99329,-0.87296 1.71682,-1.82923 1.58508,-2.78196 -0.2123,-1.53539 -1.23055,-2.6768 -2.58788,-3.55834 -1.36238,-0.88481 -3.68866,-1.70701 -5.36995,-2.19824 -2.20605,-0.64454 -3.91389,-0.89507 -5.98436,-1.00772 -0.11593,-2.09767 0.16367,-4.85807 -1.16457,-6.46616 -0.30762,-0.37244 -0.75607,-0.60922 -1.29393,-0.64697 -0.8644,0.0349 -2.03917,0.33585 -2.31692,1.71439 z"
             style="opacity:1;fill:#ffffff;fill-opacity:1;stroke:none;stroke-width:0.630527"
             inkscape:connector-curvature="0" />
          <path
             sodipodi:nodetypes="scsssss"
             id="path12953"
             d="m 525.40792,509.2482 c -0.0223,0.5167 0.0858,1.63085 0.76285,1.71668 0.80715,0.0954 1.06623,-0.56918 1.15421,-1.08857 0.28002,-1.65306 0.35782,-2.14718 0.49773,-3.64501 0.1649,-1.76531 0.59849,-4.74318 -0.15939,-4.46549 -0.76783,0.28132 -1.37771,2.6599 -1.57749,3.65673 -0.15563,0.77656 -0.63955,2.93843 -0.67791,3.82566 z"
             style="opacity:1;fill:#ffffff;fill-opacity:1;stroke:none;stroke-width:0.630527"
             inkscape:connector-curvature="0" />
          <path
             inkscape:connector-curvature="0"
             style="opacity:1;fill:#ffffff;fill-opacity:1;stroke:none;stroke-width:0.630527"
             d="m 528.94351,509.62287 c -0.44215,1.03198 -0.65128,1.92343 -0.0403,2.22626 0.72823,0.36092 1.35764,-0.3379 1.56245,-0.82325 0.61762,-1.46364 0.95952,-2.34978 1.43603,-3.45677 0.70101,-1.62854 2.45067,-4.75688 1.29593,-4.59097 -0.80943,0.1163 -1.8982,2.17237 -2.42048,3.04461 -0.6734,1.12028 -1.19689,2.1138 -1.83368,3.60012 z"
             id="path12955"
             sodipodi:nodetypes="ssssscs" />
        </g>
      </g>
    </g>
  </g>
</svg>
